<svg width="150" height="40" viewBox="0 0 150 40" fill="none" xmlns="http://www.w3.org/2000/svg">
<path d="M32.2968 26.6999C31.1488 26.3635 30.2274 25.9255 29.5312 25.3845L30.7526 22.6425C31.4202 23.1368 32.2113 23.535 33.13 23.8343C34.0487 24.1336 34.9661 24.2833 35.8848 24.2833C36.9066 24.2833 37.6624 24.1309 38.151 23.8233C38.6395 23.5157 38.8837 23.1066 38.8837 22.5985C38.8837 22.2237 38.7399 21.9134 38.4509 21.6649C38.1632 21.4177 37.7914 21.22 37.3395 21.0703C36.8876 20.9207 36.2769 20.7559 35.5075 20.576C34.3228 20.2904 33.3526 20.0062 32.5981 19.7206C31.8422 19.4364 31.1949 18.9791 30.6549 18.3503C30.1134 17.7214 29.8447 16.8825 29.8447 15.8321C29.8447 14.919 30.089 14.0911 30.5775 13.3482C31.066 12.6068 31.8029 12.0191 32.7881 11.5838C33.7733 11.15 34.9769 10.9316 36.3977 10.9316C37.3897 10.9316 38.3599 11.0511 39.3071 11.2914C40.2543 11.5303 41.0848 11.8749 41.7945 12.3253L40.6831 15.0893C39.2461 14.2654 37.8103 13.8521 36.3733 13.8521C35.3664 13.8521 34.6214 14.0183 34.141 14.3464C33.6593 14.676 33.4191 15.1112 33.4191 15.6495C33.4191 16.1877 33.6973 16.59 34.2523 16.8523C34.8086 17.1145 35.6554 17.3727 36.7953 17.6281C37.98 17.9123 38.9502 18.1965 39.7047 18.4821C40.4592 18.7677 41.1079 19.2153 41.648 19.8304C42.1894 20.4456 42.4581 21.2763 42.4581 22.3253C42.4581 23.2247 42.2111 24.0457 41.7145 24.7872C41.2178 25.5286 40.4742 26.1163 39.4822 26.5502C38.4902 26.9855 37.2825 27.2024 35.8603 27.2024C34.6309 27.2024 33.4421 27.0335 32.2955 26.6971L32.2968 26.6999Z" fill="white"/>
<path d="M54.7772 15.4398C55.6877 15.9561 56.4029 16.6838 56.9199 17.6203C57.4383 18.5567 57.6974 19.6469 57.6974 20.8909C57.6974 22.1349 57.4383 23.2237 56.9199 24.1615C56.4015 25.0979 55.6864 25.8243 54.7772 26.3419C53.8666 26.8582 52.8557 27.1177 51.7443 27.1177C50.219 27.1177 49.0194 26.6303 48.1455 25.6568V31.2987H44.6797V14.8439H47.9894V16.2376C48.8484 15.1886 50.0996 14.6641 51.7429 14.6641C52.8543 14.6641 53.8639 14.9236 54.7758 15.4398H54.7772ZM53.3333 23.3294C53.9033 22.7226 54.1882 21.9097 54.1882 20.8909C54.1882 19.8721 53.9033 19.0579 53.3333 18.4523C52.7634 17.8454 52.0333 17.542 51.1445 17.542C50.2556 17.542 49.5269 17.8454 48.957 18.4523C48.387 19.0579 48.1007 19.8721 48.1007 20.8909C48.1007 21.9097 48.3857 22.7226 48.957 23.3294C49.5269 23.935 50.257 24.2398 51.1445 24.2398C52.0319 24.2398 52.762 23.9363 53.3333 23.3294Z" fill="white"/>
<path d="M68.8953 16.0006C69.8859 16.8931 70.384 18.2373 70.384 20.0361V26.9371H67.1407V25.4308C66.488 26.5553 65.2748 27.1169 63.4972 27.1169C62.5785 27.1169 61.7833 26.959 61.1088 26.6446C60.4344 26.3302 59.9201 25.8949 59.5646 25.3416C59.209 24.7868 59.0312 24.158 59.0312 23.4536C59.0312 22.3291 59.4506 21.4462 60.2865 20.8022C61.1224 20.1583 62.4156 19.8356 64.1621 19.8356H66.9168C66.9168 19.0708 66.6875 18.4831 66.2288 18.0712C65.7701 17.6593 65.0808 17.4533 64.1634 17.4533C63.527 17.4533 62.9014 17.5549 62.2867 17.7568C61.672 17.96 61.1495 18.2332 60.7207 18.5765L59.4763 16.127C60.1277 15.6629 60.9093 15.3031 61.8199 15.0491C62.7304 14.7937 63.6681 14.666 64.6303 14.666C66.4812 14.666 67.9034 15.1123 68.8953 16.0034V16.0006ZM65.9398 24.3406C66.3984 24.0632 66.7241 23.6554 66.9168 23.1158V21.8801H64.5393C63.1186 21.8801 62.4075 22.3524 62.4075 23.2957C62.4075 23.7461 62.5812 24.1017 62.9299 24.3639C63.2773 24.6262 63.755 24.7566 64.3629 24.7566C64.9709 24.7566 65.4811 24.6193 65.9398 24.342V24.3406Z" fill="white"/>
<path d="M78.5026 15.1125C79.2056 14.8131 80.017 14.6621 80.9344 14.6621V17.8984C80.549 17.8682 80.2898 17.8531 80.1568 17.8531C79.1648 17.8531 78.3873 18.1346 77.8255 18.6962C77.2623 19.2591 76.9814 20.1008 76.9814 21.2253V26.9345H73.5156V14.8434H76.8254V16.4389C77.2392 15.8553 77.7983 15.4132 78.5026 15.1125Z" fill="white"/>
<path d="M88.1308 22.1938L86.4658 23.8566V26.9364H83V10.2578H86.4658V19.6976L91.5301 14.8425H95.6622L90.6861 19.9681L96.106 26.9364H91.9074L88.1308 22.1938Z" fill="white"/>
<path d="M97.9037 11.2031H101.502V23.9698H109.298V26.937H97.9023V11.2031H97.9037Z" fill="white"/>
<path d="M120.298 16.0006C121.288 16.8931 121.786 18.2373 121.786 20.0361V26.9371H118.543V25.4308C117.89 26.5553 116.677 27.1169 114.899 27.1169C113.981 27.1169 113.186 26.959 112.511 26.6446C111.837 26.3302 111.322 25.8949 110.967 25.3416C110.611 24.7868 110.434 24.158 110.434 23.4536C110.434 22.3291 110.853 21.4462 111.689 20.8022C112.525 20.1583 113.818 19.8356 115.564 19.8356H118.319C118.319 19.0708 118.09 18.4831 117.631 18.0712C117.172 17.6593 116.483 17.4533 115.566 17.4533C114.929 17.4533 114.304 17.5549 113.689 17.7568C113.074 17.96 112.552 18.2332 112.123 18.5765L110.879 16.127C111.53 15.6629 112.312 15.3031 113.222 15.0491C114.133 14.7937 115.07 14.666 116.033 14.666C117.884 14.666 119.306 15.1123 120.298 16.0034V16.0006ZM117.342 24.3406C117.801 24.0632 118.126 23.6554 118.319 23.1158V21.8801H115.942C114.521 21.8801 113.81 22.3524 113.81 23.2957C113.81 23.7461 113.984 24.1017 114.332 24.3639C114.68 24.6262 115.157 24.7566 115.765 24.7566C116.373 24.7566 116.883 24.6193 117.342 24.342V24.3406Z" fill="white"/>
<path d="M135.014 15.4397C135.925 15.956 136.64 16.6837 137.157 17.6202C137.675 18.5566 137.934 19.6468 137.934 20.8908C137.934 22.1348 137.675 23.2236 137.157 24.1614C136.638 25.0992 135.923 25.8242 135.014 26.3418C134.104 26.8581 133.093 27.1176 131.981 27.1176C130.338 27.1176 129.085 26.5931 128.228 25.5441V26.9378H124.918V10.2578H128.384V16.1235C129.258 15.15 130.456 14.6626 131.983 14.6626C133.094 14.6626 134.104 14.9221 135.015 15.4384L135.014 15.4397ZM133.57 23.3293C134.14 22.7225 134.425 21.9096 134.425 20.8908C134.425 19.872 134.14 19.0578 133.57 18.4522C133 17.8453 132.27 17.5419 131.381 17.5419C130.493 17.5419 129.764 17.8453 129.194 18.4522C128.624 19.0578 128.338 19.872 128.338 20.8908C128.338 21.9096 128.623 22.7225 129.194 23.3293C129.764 23.9349 130.494 24.2397 131.381 24.2397C132.269 24.2397 132.999 23.9362 133.57 23.3293Z" fill="white"/>
<path d="M141.352 26.745C140.404 26.4979 139.649 26.1862 139.086 25.8114L140.241 23.2932C140.774 23.6392 141.417 23.9193 142.173 24.1362C142.929 24.3532 143.669 24.4616 144.395 24.4616C145.86 24.4616 146.593 24.0937 146.593 23.3604C146.593 23.0158 146.393 22.7687 145.994 22.6176C145.594 22.468 144.979 22.3416 144.15 22.2359C143.173 22.0862 142.366 21.9132 141.729 21.7196C141.093 21.5247 140.541 21.18 140.075 20.6857C139.608 20.1914 139.376 19.487 139.376 18.5726C139.376 17.8092 139.595 17.1309 140.032 16.5391C140.467 15.9473 141.105 15.4859 141.942 15.1564C142.778 14.8282 143.768 14.6621 144.907 14.6621C145.752 14.6621 146.592 14.7555 147.429 14.9436C148.265 15.1303 148.957 15.3898 149.506 15.7194L148.35 18.2142C147.3 17.6156 146.152 17.3162 144.907 17.3162C144.167 17.3162 143.612 17.4206 143.242 17.6307C142.872 17.8407 142.686 18.1099 142.686 18.4394C142.686 18.8142 142.886 19.0779 143.286 19.2262C143.685 19.3758 144.323 19.5186 145.197 19.6532C146.174 19.818 146.974 19.9937 147.596 20.1818C148.217 20.3699 148.759 20.7104 149.217 21.2047C149.676 21.7004 149.905 22.3897 149.905 23.2726C149.905 24.0223 149.684 24.6882 149.239 25.2731C148.794 25.8567 148.147 26.3098 147.296 26.6325C146.444 26.9551 145.433 27.1158 144.263 27.1158C143.271 27.1158 142.301 26.9922 141.354 26.745H141.352Z" fill="white"/>
<path d="M29.1427 3.62409C28.57 5.93358 27.9661 8.21011 27.3948 10.5251C27.2659 8.04397 27.2917 5.44614 27.2266 2.92383C27.8508 3.15862 28.5076 3.39341 29.1427 3.62409Z" fill="#54B33A"/>
<path d="M25.0725 24.5371C25.8921 26.2287 26.5028 28.1496 27.2152 29.9538C26.1133 30.6541 25.2055 31.4587 24.0859 32.1603C24.4279 29.6174 24.7943 27.0965 25.0725 24.5371Z" fill="#287DC1"/>
<path d="M25.3572 6.84788C25.6191 9.76152 25.8769 12.6697 26.1022 15.5957C25.1238 12.4733 24.121 9.36333 23.1914 6.20117C23.9079 6.41812 24.661 6.61996 25.3572 6.84788Z" fill="#EA871C"/>
<path d="M22.0907 22.9297C22.1409 23.1686 21.7094 24.0377 21.5737 24.4167C21.0037 25.9738 20.3171 27.7436 19.8068 29.2101H17.4375C18.9601 27.0942 20.507 25.0126 22.0893 22.9626C22.0798 22.9475 22.0893 22.9393 22.0893 22.9297H22.0907Z" fill="#54B33A"/>
<path d="M22.8719 15.7541C22.9234 15.8036 22.8719 15.7692 22.8312 15.7541C19.801 13.0698 16.6704 10.4953 13.6836 7.7643C14.5412 7.34003 15.2984 6.83199 16.1696 6.42969C18.387 9.54791 20.6505 12.6277 22.8705 15.7528L22.8719 15.7541Z" fill="#287DC1"/>
<path d="M23.5182 25.1641C22.9197 28.4539 22.0703 31.9374 21.4257 35.3467C20.5735 35.4757 19.7131 35.5856 18.8867 35.7325C20.3767 32.1639 21.9875 28.7024 23.5182 25.1641Z" fill="#EA871C"/>
<path d="M22.9786 12.3081C22.9705 12.3562 22.9447 12.3383 22.9474 12.3054C20.7816 8.81505 18.5263 5.30413 16.3293 1.79322C16.0172 1.31127 15.6793 0.829329 15.4961 0.293835C16.3931 0.227928 17.2806 0.126322 18.13 0C19.8019 4.05602 21.3584 8.22189 22.9773 12.3081H22.9786Z" fill="#DA1A61"/>
<path d="M19.7175 20.3828C19.8287 20.3952 19.7595 20.4158 19.746 20.4652C17.4241 21.9206 14.6518 23.5312 12.1847 25.1116C11.9744 25.2558 11.2687 25.8078 11.1344 25.7954C11.0367 25.7831 10.6907 25.2695 10.6092 25.1748C10.0895 24.5349 9.56163 23.9322 9.13281 23.3088C12.6868 22.3669 16.2205 21.3961 19.7175 20.3828Z" fill="#DA1A61"/>
<path d="M18.7925 23.7422C16.0757 26.7945 13.1188 29.9333 10.2705 32.9801C9.39654 32.5641 8.60134 32.0973 7.73828 31.6757C11.3778 28.9804 15.1299 26.4238 18.7911 23.7422H18.7925Z" fill="#287DC1"/>
<path d="M17.9802 19.3361C12.4463 19.9251 6.64647 20.451 1.05696 20.9645C0.903619 19.8359 0.773346 18.655 0.586079 17.5538C0.580651 17.4975 0.573866 17.4358 0.615933 17.4316C6.43206 18.0372 12.1722 18.7237 17.9788 19.3374L17.9802 19.3361Z" fill="#EA871C"/>
<path d="M22.4384 18.5533C18.3131 17.7157 14.1037 16.6214 9.93359 15.7055C10.2362 14.5329 10.6162 13.4043 10.9337 12.2207C14.7713 14.3187 18.5655 16.4772 22.4384 18.5533Z" fill="#DA1A61"/>
<path d="M18.135 14.3117C13.4886 11.9816 8.77164 9.36455 4.05469 6.96993C4.81868 5.91405 5.73059 5.03254 6.51765 4C10.4231 7.40107 14.2499 10.89 18.135 14.3117Z" fill="#54B33A"/>
<path d="M65.6325 34.1219H63.3555V33.2871H68.8486V34.1219H66.5716V40H65.6325V34.1219Z" fill="white"/>
<path d="M76.6273 38.3221H73.0977L72.3677 40H71.3906L74.3977 33.2871H75.3368L78.3534 40H77.3587L76.6287 38.3221H76.6273ZM76.2948 37.556L74.8618 34.2647L73.4302 37.556H76.2948Z" fill="white"/>
<path d="M82.1836 33.2871H83.1335V40H82.1836V33.2871Z" fill="white"/>
<path d="M97.2906 33.2871L95.0706 40H94.0732L92.2616 34.6396L90.45 40H89.4349L87.2148 33.2871H88.1919L89.9845 38.7437L91.8545 33.2871H92.727L94.5563 38.7725L96.3882 33.2871H97.2906Z" fill="white"/>
<path d="M105.315 38.3221H101.785L101.055 40H100.078L103.085 33.2871H104.024L107.041 40H106.046L105.316 38.3221H105.315ZM104.982 37.556L103.549 34.2647L102.118 37.556H104.982Z" fill="white"/>
<path d="M116.587 33.2871V40H115.809L111.825 34.9952V40H110.875V33.2871H111.655L115.638 38.2919V33.2871H116.588H116.587Z" fill="white"/>
</svg>
